<svg width="156" height="26" viewBox="0 0 156 26" fill="none" xmlns="http://www.w3.org/2000/svg">
  <path fill-rule="evenodd" clip-rule="evenodd"
    d="M0.00383358 16.8793V23.8564V25.1694H7.67483V16.8793H20.1972C21.4968 16.8793 22.6699 16.7106 23.7126 16.3713C24.7975 16.0205 25.7348 15.4858 26.5188 14.7708C27.3239 14.0367 27.9257 13.1204 28.3225 12.024C28.7001 10.9813 28.8899 9.78522 28.8899 8.44155C28.8899 7.09788 28.7001 5.90372 28.3225 4.85907C27.9257 3.76074 27.3239 2.84452 26.5188 2.1123C25.7329 1.39734 24.7975 0.864473 23.7126 0.511783C22.6699 0.172511 21.4987 0.00383358 20.1991 0.00383358H0.00383358V10.1283H0L0.00383358 10.1302V10.1283H7.671V6.72602H19.5973C19.9346 6.72602 20.2126 6.76052 20.4272 6.82953C20.5998 6.8832 20.7378 6.95987 20.8432 7.05571C21.0483 7.24355 21.1518 7.7055 21.1518 8.43963C21.1518 8.85174 21.1115 9.1891 21.0291 9.44786L21.0349 9.44978C20.9831 9.61654 20.9141 9.74113 20.8317 9.82164C20.594 10.0421 20.1819 10.1532 19.5992 10.1532V10.159L7.67292 10.1302V16.8793H0.00383358ZM61.9066 0.00191679V18.4434H69.5776V25.1694H86.0639V18.4434H69.5776V0.00191679H61.9066ZM87.6261 0.00191679V23.8545V23.8564V25.1694H111.783V18.4434H95.2971V0.00191679H87.6261ZM113.346 15.9477V25.1675H121.017V15.9477H113.346ZM113.346 0.00191679V9.22168H121.017V0.00191679H113.346ZM146.569 0L139.792 9.23702V15.9611L146.537 25.1656H156L146.566 12.5972L155.996 0H146.569ZM59.085 0.00386845H51.414V0.00578524V18.6044H38.1211V25.2729H55.7498C57.5842 25.2729 59.085 23.7721 59.085 21.9377V18.6025V0.00386845ZM30.452 0.00386845V18.4453H38.123V0.00386845H30.452Z"
    fill="white" />
  <path fill-rule="evenodd" clip-rule="evenodd"
    d="M139.944 9.23726L133.166 0.000244141H123.739L130.725 9.33126H139.944V9.23726ZM139.891 16.0339H130.59L123.735 25.1658H133.199L139.891 16.0339Z"
    fill="#EF9933" />
</svg>